<?xml version="1.0" encoding="UTF-8"?>
<svg width="19px" height="18px" viewBox="0 0 19 18" version="1.1" xmlns="http://www.w3.org/2000/svg" xmlns:xlink="http://www.w3.org/1999/xlink">
    <!-- Generator: Sketch 53 (72520) - https://sketchapp.com -->
    <title>icon / object / book-open</title>
    <desc>Created with Sketch.</desc>
    <g id="Homepage" stroke="none" stroke-width="1" fill="none" fill-rule="evenodd">
        <g id="homepage" transform="translate(-209.000000, -307.000000)" fill="#FFFFFF" fill-rule="nonzero">
            <g id="hero" transform="translate(0.000000, 96.000000)">
                <g id="Group-12" transform="translate(130.000000, 52.000000)">
                    <g id="Group-6" transform="translate(72.000000, 152.000000)">
                        <g id="icon-/-object-/-project">
                            <path d="M9,9 L9,23 L15,23 C15.5522847,23 16,23.4477153 16,24 C16,24.5522847 15.5522847,25 15,25 L8.87745985,25 C7.81105962,25 7,24.0816565 7,23.0066023 L7,8.99339768 C7,7.91782125 7.80719548,7 8.8757627,7 L21.1242373,7 C22.1914775,7 23,7.91670788 23,8.99607751 L23,14 C23,14.5522847 22.5522847,15 22,15 C21.4477153,15 21,14.5522847 21,14 L21,9 L9,9 Z M12,13 C11.4477153,13 11,12.5522847 11,12 C11,11.4477153 11.4477153,11 12,11 L18,11 C18.5522847,11 19,11.4477153 19,12 C19,12.5522847 18.5522847,13 18,13 L12,13 Z M12,17 C11.4477153,17 11,16.5522847 11,16 C11,15.4477153 11.4477153,15 12,15 L16,15 C16.5522847,15 17,15.4477153 17,16 C17,16.5522847 16.5522847,17 16,17 L12,17 Z M12,21 C11.4477153,21 11,20.5522847 11,20 C11,19.4477153 11.4477153,19 12,19 L15,19 C15.5522847,19 16,19.4477153 16,20 C16,20.5522847 15.5522847,21 15,21 L12,21 Z M18,18.990778 C18,17.892687 18.8972855,17 19.990778,17 L24.009222,17 C25.107313,17 26,17.8972855 26,18.990778 L26,23.009222 C26,24.107313 25.1027145,25 24.009222,25 L19.990778,25 C18.892687,25 18,24.1027145 18,23.009222 L18,18.990778 Z M20,23 L24,23 L24,19 L20,19 L20,23 Z" id="🎨-icon-color"></path>
                        </g>
                    </g>
                </g>
            </g>
        </g>
    </g>
</svg>