<?xml version="1.0" encoding="UTF-8"?>
<svg width="22px" height="20px" viewBox="0 0 22 20" version="1.1" xmlns="http://www.w3.org/2000/svg" xmlns:xlink="http://www.w3.org/1999/xlink">
    <!-- Generator: Sketch 53 (72520) - https://sketchapp.com -->
    <title>icon / product / careers</title>
    <desc>Created with Sketch.</desc>
    <g id="Homepage" stroke="none" stroke-width="1" fill="none" fill-rule="evenodd">
        <g id="homepage" transform="translate(-207.000000, -434.000000)" fill="#FFFFFF" fill-rule="nonzero">
            <g id="hero" transform="translate(0.000000, 96.000000)">
                <g id="Group-12" transform="translate(130.000000, 52.000000)">
                    <g id="Group-6" transform="translate(72.000000, 152.000000)">
                        <g id="icon-/-product-/-careers" transform="translate(0.000000, 128.000000)">
                            <path d="M7.74518281,12.0000472 C9.59816863,14.6825154 12.3177306,16 16,16 C19.6801467,16 22.3986956,14.6840339 24.2516118,12.0046849 C22.354865,12.0021951 16.8527221,12.0006492 7.74518281,12.0000472 Z M24.9991222,14.2873751 C22.8098712,16.751805 19.7886028,18 16,18 C12.2109023,18 9.18933957,16.7514789 7.00002001,14.2864094 C7.00200808,16.2531574 7.00200141,19.4887391 7,23.9931545 C7,23.9970077 13.0027323,23.9992896 25.0081969,24 C25.0000822,24 24.9970573,20.7624584 24.9991222,14.2873751 Z M11.000021,10 C11.000007,9.99687876 11,9.99375579 11,9.9906311 L11,8.0093689 C11,6.90365672 11.896723,6 12.9970301,6 L19.0029699,6 C20.1102792,6 21,6.8954572 21,8.0093689 L21,9.9906311 C21,9.99375569 20.9999928,9.99687866 20.9999785,10 L25.0081969,10 C26.1117901,10 27,10.9011669 27,12.0068455 L27,23.9931545 C27,25.095973 26.1024956,26 25.0081969,26 L6.99180311,26 C5.88820995,26 5,25.0988331 5,23.9931545 L5,12.0068455 C5,10.904027 5.89750441,10 6.99180311,10 L11.000021,10 Z M12.9970301,8 C13.0047557,8 13,8.00479244 13,8.0093689 L13,9.9906311 C13,9.99702502 12.999226,9.9992915 12.9984675,10 L19.0029699,10 C18.9952443,10 19,9.99520756 19,9.9906311 L19,8.0093689 C19,8.00297498 19.000774,8.0007085 19.0015325,8 L12.9970301,8 Z" id="🎨-icon-color"></path>
                        </g>
                    </g>
                </g>
            </g>
        </g>
    </g>
</svg>