<?xml version="1.0" encoding="UTF-8"?>
<svg width="20px" height="20px" viewBox="0 0 20 20" version="1.1" xmlns="http://www.w3.org/2000/svg" xmlns:xlink="http://www.w3.org/1999/xlink">
    <!-- Generator: Sketch 53 (72520) - https://sketchapp.com -->
    <title>icon / product / mentorship</title>
    <desc>Created with Sketch.</desc>
    <g id="Homepage" stroke="none" stroke-width="1" fill="none" fill-rule="evenodd">
        <g id="homepage" transform="translate(-208.000000, -370.000000)" fill="#FFFFFF" fill-rule="nonzero">
            <g id="hero" transform="translate(0.000000, 96.000000)">
                <g id="Group-12" transform="translate(130.000000, 52.000000)">
                    <g id="Group-6" transform="translate(72.000000, 152.000000)">
                        <g id="icon-/-product-/-mentorship" transform="translate(0.000000, 64.000000)">
                            <path d="M7.89098837,17.8330867 C7.33690636,17.2139003 7,16.3962945 7,15.5 C7,13.5670034 8.56700338,12 10.5,12 C12.4329966,12 14,13.5670034 14,15.5 C14,16.3962945 13.6630936,17.2139003 13.1090116,17.8330867 C14.2536057,18.6489317 15,19.987301 15,21.5 L15,24 C15,25.1045695 14.1045695,26 13,26 L8,26 C6.8954305,26 6,25.1045695 6,24 L6,21.5 C6,19.987301 6.74639432,18.6489317 7.89098837,17.8330867 Z M23,17 L20.3027756,17 L17.5547002,18.8320503 C16.8901455,19.2750868 16,18.7986954 16,18 L16,16 C16,15.4477153 16.4477153,15 17,15 C17.5522847,15 18,15.4477153 18,16 L18,16.1314829 L19.4452998,15.1679497 C19.6095673,15.058438 19.802575,15 20,15 L23,15 C23.4477153,15 24,14.4477153 24,14 L24,9 C24,8.55228475 23.4477153,8 23,8 L15,8 C14.5522847,8 14,8.55228475 14,9 L14,10 C14,10.5522847 13.5522847,11 13,11 C12.4477153,11 12,10.5522847 12,10 L12,9 C12,7.44771525 13.4477153,6 15,6 L23,6 C24.5522847,6 26,7.44771525 26,9 L26,14 C26,15.5522847 24.5522847,17 23,17 Z M10.5,17 C11.3284271,17 12,16.3284271 12,15.5 C12,14.6715729 11.3284271,14 10.5,14 C9.67157288,14 9,14.6715729 9,15.5 C9,16.3284271 9.67157288,17 10.5,17 Z M10.5,19 C9.11928813,19 8,20.1192881 8,21.5 L8,24 L13,24 L13,21.5 C13,20.1192881 11.8807119,19 10.5,19 Z" id="🎨-icon-color"></path>
                        </g>
                    </g>
                </g>
            </g>
        </g>
    </g>
</svg>